<svg width="50" height="50" viewBox="0 0 50 50" fill="none" xmlns="http://www.w3.org/2000/svg">
<rect width="49.0991" height="50" rx="24.5495" fill="#EDEDED"/>
<path d="M20 21C20 18.2386 22.2386 16 25 16C27.7614 16 30 18.2386 30 21C30 23.7614 27.7614 26 25 26C22.2386 26 20 23.7614 20 21ZM25 24C26.6569 24 28 22.6569 28 21C28 19.3431 26.6569 18 25 18C23.3431 18 22 19.3431 22 21C22 22.6569 23.3431 24 25 24Z" fill="#0F1828"/>
<path d="M19.3431 29.3431C17.8429 30.8434 17 32.8783 17 35H19C19 33.4087 19.6321 31.8826 20.7574 30.7574C21.8826 29.6321 23.4087 29 25 29C26.5913 29 28.1174 29.6321 29.2426 30.7574C30.3679 31.8826 31 33.4087 31 35H33C33 32.8783 32.1571 30.8434 30.6569 29.3431C29.1566 27.8429 27.1217 27 25 27C22.8783 27 20.8434 27.8429 19.3431 29.3431Z" fill="#0F1828"/>
</svg>
